<svg width="30" height="30" viewBox="0 0 30 30" fill="none" xmlns="http://www.w3.org/2000/svg">
<path d="M16.2499 2.50049H16.5908C20.6674 2.50049 22.7056 2.50049 24.1211 3.49778C24.5267 3.78352 24.8867 4.12239 25.1903 4.5041C26.2499 5.83633 26.2499 7.75469 26.2499 11.5914V14.7732C26.2499 18.4772 26.2499 20.3292 25.6638 21.8083C24.7214 24.1862 22.7285 26.0619 20.202 26.9488C18.6304 27.5005 16.6627 27.5005 12.7272 27.5005C10.4784 27.5005 9.35396 27.5005 8.45591 27.1852C7.01218 26.6784 5.87338 25.6066 5.33489 24.2478C4.99994 23.4026 4.99994 22.3443 4.99994 20.2278V15.0005" stroke="#D81B1B" stroke-width="2" stroke-linecap="round" stroke-linejoin="round"/>
<path d="M26.25 15C26.25 17.3012 24.3845 19.1667 22.0833 19.1667C21.2511 19.1667 20.27 19.0208 19.4608 19.2377C18.7419 19.4303 18.1803 19.9919 17.9877 20.7108C17.7708 21.52 17.9167 22.5011 17.9167 23.3333C17.9167 25.6345 16.0512 27.5 13.75 27.5" stroke="#D81B1B" stroke-width="2" stroke-linecap="round" stroke-linejoin="round"/>
<path d="M13.75 7.50049L3.75 7.50049M8.75 2.50049V12.5005" stroke="#D81B1B" stroke-width="2" stroke-linecap="round"/>
</svg>
