<svg width="23" height="23" viewBox="0 0 23 23" fill="none" xmlns="http://www.w3.org/2000/svg">
<path d="M11.9792 1.91675H14.5667C16.1768 1.91675 16.9819 1.91675 17.5969 2.2301C18.1379 2.50574 18.5777 2.94556 18.8533 3.48653C19.1667 4.10152 19.1667 4.9066 19.1667 6.51675V16.4834C19.1667 18.0936 19.1667 18.8986 18.8533 19.5136C18.5777 20.0546 18.1379 20.4944 17.5969 20.7701C16.9819 21.0834 16.1768 21.0834 14.5667 21.0834H8.43333C6.82318 21.0834 6.01811 21.0834 5.40311 20.7701C4.86214 20.4944 4.42233 20.0546 4.14669 19.5136C3.83333 18.8986 3.83333 18.0936 3.83333 16.4834V15.8126M15.3333 12.4584H11.0208M15.3333 8.62508H11.9792M15.3333 16.2917H7.66667M5.75 9.58342V4.31258C5.75 3.51867 6.39359 2.87508 7.1875 2.87508C7.98141 2.87508 8.625 3.51867 8.625 4.31258V9.58342C8.625 11.1712 7.33782 12.4584 5.75 12.4584C4.16218 12.4584 2.875 11.1712 2.875 9.58342V5.75008" stroke="black" stroke-width="2" stroke-linecap="round" stroke-linejoin="round"/>
</svg>
