<svg width="16" height="18" viewBox="0 0 16 18" fill="none" xmlns="http://www.w3.org/2000/svg">
<path d="M15 7.4H1M11.1111 1V4.2M4.88889 1V4.2M6.83333 10.6L8 9.8V13.8M7.02778 13.8H8.97222M4.73333 17H11.2667C12.5735 17 13.2269 17 13.726 16.7384C14.165 16.5083 14.522 16.1412 14.7457 15.6896C15 15.1762 15 14.5041 15 13.16V6.44C15 5.09587 15 4.42381 14.7457 3.91042C14.522 3.45883 14.165 3.09168 13.726 2.86158C13.2269 2.6 12.5735 2.6 11.2667 2.6H4.73333C3.42654 2.6 2.77315 2.6 2.27402 2.86158C1.83498 3.09168 1.47802 3.45883 1.25432 3.91042C1 4.42381 1 5.09587 1 6.44V13.16C1 14.5041 1 15.1762 1.25432 15.6896C1.47802 16.1412 1.83498 16.5083 2.27402 16.7384C2.77315 17 3.42654 17 4.73333 17Z" stroke="#5E5F62" stroke-width="2" stroke-linecap="round" stroke-linejoin="round"/>
</svg>
