<svg width="17" height="17" viewBox="0 0 17 17" fill="none" xmlns="http://www.w3.org/2000/svg">
<path d="M3.48722 14.0788C3.94347 13.0039 5.00869 12.25 6.25 12.25H10.75C11.9913 12.25 13.0565 13.0039 13.5128 14.0788M11.5 6.625C11.5 8.28185 10.1569 9.625 8.5 9.625C6.84315 9.625 5.5 8.28185 5.5 6.625C5.5 4.96815 6.84315 3.625 8.5 3.625C10.1569 3.625 11.5 4.96815 11.5 6.625ZM16 8.5C16 12.6421 12.6421 16 8.5 16C4.35786 16 1 12.6421 1 8.5C1 4.35786 4.35786 1 8.5 1C12.6421 1 16 4.35786 16 8.5Z" stroke="#5E5F62" stroke-width="2" stroke-linecap="round" stroke-linejoin="round"/>
</svg>
