<svg width="14" height="14" viewBox="0 0 14 14" fill="none" xmlns="http://www.w3.org/2000/svg">
<g clip-path="url(#clip0_61_7206)">
<path d="M6.89343 4.78298L8.89752 6.78707L8.90707 6.6821C8.90707 5.62914 8.05136 4.77344 6.99841 4.77344L6.89343 4.78298Z" fill="#ABABAB"/>
<path d="M6.99843 3.50069C8.75439 3.50069 10.1795 4.92583 10.1795 6.6818C10.1795 7.09216 10.0968 7.48343 9.95369 7.84289L11.8146 9.70383C12.7753 8.90219 13.5324 7.86517 14 6.6818C12.8962 3.88881 10.1827 1.91016 6.99846 1.91016C6.10774 1.91016 5.25523 2.0692 4.46313 2.3555L5.83737 3.72654C6.19679 3.58658 6.58807 3.50069 6.99843 3.50069Z" fill="#ABABAB"/>
<path d="M0.636209 1.76723L2.08679 3.21781L2.37628 3.5073C1.32652 4.32803 0.496251 5.41915 0 6.68203C1.10067 9.47502 3.81731 11.4537 6.99842 11.4537C7.98457 11.4537 8.92616 11.2628 9.78825 10.9161L10.0587 11.1865L11.9132 13.0442L12.7244 12.2362L1.44739 0.956055L0.636209 1.76723ZM4.15452 5.28235L5.13748 6.26531C5.10885 6.40211 5.08976 6.53888 5.08976 6.68203C5.08976 7.73498 5.94547 8.59068 6.99842 8.59068C7.14157 8.59068 7.27837 8.5716 7.41197 8.54297L8.39493 9.52592C7.97183 9.73588 7.50105 9.86313 6.99842 9.86313C5.24245 9.86313 3.81731 8.43799 3.81731 6.68203C3.81731 6.17942 3.94457 5.70861 4.15452 5.28235Z" fill="#ABABAB"/>
</g>
<defs>
<clipPath id="clip0_61_7206">
<rect width="14" height="14" fill="white"/>
</clipPath>
</defs>
</svg>
