<svg width="17" height="17" viewBox="0 0 17 17" fill="none" xmlns="http://www.w3.org/2000/svg">
<path d="M13.0032 7.2296V4.53742C13.0104 3.31927 12.5239 2.14798 11.6553 1.29383C10.8156 0.457706 9.71638 0 8.5523 0C8.53428 0 8.51265 0 8.49463 0C6.01149 0.00360399 3.99325 2.03625 3.99325 4.53742V7.2296C3.05622 7.34132 2.37146 8.12699 2.37146 9.07844V15.1259C2.37146 16.1531 3.19317 17 4.2203 17H12.7798C13.8069 17 14.6286 16.1531 14.6286 15.1259V9.07844C14.625 8.13059 13.9403 7.34132 13.0032 7.2296ZM4.71045 4.53742H4.71405C4.71405 2.43269 6.41153 0.709985 8.49824 0.709985H8.50184C9.49294 0.706381 10.4444 1.09922 11.1472 1.79839C11.8788 2.52279 12.286 3.51028 12.2788 4.53742V7.2332H11.4859V4.53742C11.4931 3.71931 11.1688 2.93364 10.5885 2.35701C10.0407 1.8092 9.29832 1.49926 8.52346 1.49926H8.50184C6.84401 1.49926 5.50332 2.86156 5.50332 4.53381V7.2332H4.71045V4.53742ZM10.7687 4.53742V7.2332H6.22772V4.53742C6.22772 3.26161 7.24405 2.22366 8.50544 2.22366H8.52707C9.11091 2.22366 9.67313 2.45792 10.0876 2.87238C10.5273 3.31206 10.776 3.91393 10.7687 4.53742ZM13.9403 15.1367C13.9403 15.7674 13.4285 16.2792 12.7978 16.2792H4.23472C3.60402 16.2792 3.09226 15.7674 3.09226 15.1367V9.09646C3.09226 8.46576 3.60402 7.954 4.23472 7.954H12.7978C13.4285 7.954 13.9403 8.46576 13.9403 9.09646V15.1367Z" fill="#5E5F62"/>
<path d="M9.74516 11.8933C9.58659 11.3347 9.07843 10.9526 8.49818 10.9526C7.78099 10.9526 7.19714 11.5329 7.19714 12.2537C7.19714 12.8339 7.57917 13.3421 8.13778 13.5007V14.5098C8.13778 14.708 8.29996 14.8702 8.49818 14.8702C8.6964 14.8702 8.85858 14.708 8.85858 14.5098V13.5007C9.54694 13.3024 9.94699 12.5816 9.74516 11.8933ZM8.49818 12.8303C8.17743 12.8303 7.91794 12.5708 7.91794 12.2501C7.91794 11.9293 8.17743 11.6698 8.49818 11.6698C8.81894 11.6698 9.07842 11.9293 9.07842 12.2501C9.07842 12.5708 8.81894 12.8303 8.49818 12.8303Z" fill="#5E5F62"/>
</svg>
