<svg width="18" height="18" viewBox="0 0 18 18" fill="none" xmlns="http://www.w3.org/2000/svg">
<path d="M10.6622 4.1746C11.4408 4.32584 12.1565 4.70496 12.7174 5.26344C13.2784 5.82191 13.6592 6.53433 13.8112 7.30952M10.6622 1C12.2799 1.17892 13.7885 1.90014 14.9402 3.04524C16.0919 4.19035 16.8182 5.69127 17 7.30158M7.61442 10.4151C6.65651 9.46149 5.90013 8.38321 5.34527 7.23272C5.29754 7.13376 5.27368 7.08428 5.25535 7.02166C5.19019 6.79916 5.23699 6.52594 5.37253 6.3375C5.41067 6.28448 5.45623 6.23912 5.54736 6.14839C5.82607 5.87093 5.96543 5.73219 6.05654 5.59269C6.40013 5.06659 6.40013 4.38835 6.05654 3.86224C5.96543 3.72274 5.82607 3.58401 5.54736 3.30654L5.39201 3.15188C4.96834 2.7301 4.7565 2.51921 4.52899 2.40465C4.07653 2.17682 3.54219 2.17682 3.08972 2.40466C2.86221 2.51921 2.65038 2.7301 2.2267 3.15188L2.10104 3.27699C1.67881 3.69732 1.4677 3.90749 1.30647 4.19323C1.12756 4.5103 0.99892 5.00275 1.00001 5.36642C1.00099 5.69416 1.06485 5.91814 1.19256 6.36612C1.87894 8.77357 3.17399 11.0453 5.07771 12.9405C6.98144 14.8357 9.26334 16.125 11.6816 16.8083C12.1316 16.9354 12.3566 16.999 12.6858 17C13.0511 17.0011 13.5457 16.873 13.8642 16.6949C14.1513 16.5344 14.3624 16.3242 14.7846 15.9039L14.9103 15.7788C15.3339 15.357 15.5458 15.1461 15.6608 14.9196C15.8897 14.4692 15.8897 13.9372 15.6608 13.4868C15.5458 13.2603 15.3339 13.0494 14.9103 12.6276L14.7549 12.473C14.4762 12.1955 14.3368 12.0568 14.1967 11.966C13.6682 11.624 12.987 11.624 12.4585 11.9661C12.3184 12.0568 12.179 12.1955 11.9003 12.473C11.8092 12.5637 11.7636 12.609 11.7103 12.647C11.5211 12.7819 11.2466 12.8285 11.0231 12.7637C10.9602 12.7454 10.9105 12.7217 10.8111 12.6741C9.65546 12.1218 8.57233 11.3688 7.61442 10.4151Z" stroke="#5E5F62" stroke-width="2" stroke-linecap="round" stroke-linejoin="round"/>
</svg>
