<svg width="30" height="30" viewBox="0 0 30 30" fill="none" xmlns="http://www.w3.org/2000/svg">
<path d="M3.75 10L18.75 10M18.75 10C18.75 12.0711 20.4289 13.75 22.5 13.75C24.5711 13.75 26.25 12.0711 26.25 10C26.25 7.92893 24.5711 6.25 22.5 6.25C20.4289 6.25 18.75 7.92893 18.75 10ZM11.25 20L26.25 20M11.25 20C11.25 22.0711 9.57107 23.75 7.5 23.75C5.42893 23.75 3.75 22.0711 3.75 20C3.75 17.9289 5.42893 16.25 7.5 16.25C9.57107 16.25 11.25 17.9289 11.25 20Z" stroke="#D42222" stroke-width="3" stroke-linecap="round" stroke-linejoin="round"/>
</svg>
